<?xml version="1.0" encoding="iso-8859-1"?>
<!-- Generator: Adobe Illustrator 19.0.0, SVG Export Plug-In . SVG Version: 6.00 Build 0)  -->
<svg version="1.1" id="Layer_1" xmlns="http://www.w3.org/2000/svg" xmlns:xlink="http://www.w3.org/1999/xlink" x="0px" y="0px"
	 viewBox="0 0 512 512" style="enable-background:new 0 0 512 512;" xml:space="preserve">
<path style="fill:#E4EAF8;" d="M469.779,444.125H42.221c-18.891,0-34.205-15.314-34.205-34.205V102.079
	c0-18.891,15.314-34.205,34.205-34.205h427.557c18.891,0,34.205,15.314,34.205,34.205v307.841
	C503.983,428.811,488.669,444.125,469.779,444.125z"/>
<g>
	<path style="fill:#C7CFE2;" d="M409.921,409.921H102.079c-4.722,0-8.551-3.829-8.551-8.551v-51.307
		c0-4.722,3.829-8.551,8.551-8.551h307.841c4.722,0,8.551,3.829,8.551,8.551v51.307
		C418.472,406.092,414.643,409.921,409.921,409.921z"/>
	<path style="fill:#C7CFE2;" d="M461.228,307.307H332.96c-4.722,0-8.551-3.829-8.551-8.551V179.04c0-4.722,3.829-8.551,8.551-8.551
		h128.267c4.722,0,8.551,3.829,8.551,8.551v119.716C469.779,303.478,465.95,307.307,461.228,307.307z"/>
</g>
<path style="fill:#7F8499;" d="M461.228,136.284H332.96c-4.722,0-8.551-3.829-8.551-8.551V110.63c0-4.722,3.829-8.551,8.551-8.551
	h128.267c4.722,0,8.551,3.829,8.551,8.551v17.102C469.779,132.455,465.95,136.284,461.228,136.284z"/>
<path style="fill:#C7CFE2;" d="M281.653,307.307H50.772c-4.722,0-8.551-3.829-8.551-8.551V110.63c0-4.722,3.829-8.551,8.551-8.551
	h230.881c4.722,0,8.551,3.829,8.551,8.551v188.125C290.205,303.478,286.376,307.307,281.653,307.307z"/>
<rect x="76.426" y="136.284" style="fill:#00C3FF;" width="179.574" height="136.818"/>
<rect x="76.426" y="136.284" style="fill:#00AAF0;" width="179.574" height="25.653"/>
<path d="M469.779,59.858H42.221C18.941,59.858,0,78.799,0,102.079v307.841c0,23.28,18.941,42.221,42.221,42.221h427.557
	c23.28,0,42.221-18.941,42.221-42.221V102.079C512,78.799,493.059,59.858,469.779,59.858z M495.967,409.921
	c0,14.44-11.748,26.188-26.188,26.188H42.221c-14.44,0-26.188-11.748-26.188-26.188V102.079c0-14.44,11.748-26.188,26.188-26.188
	h427.557c14.44,0,26.188,11.748,26.188,26.188V409.921z"/>
<path d="M298.221,298.756V110.63c0-9.136-7.432-16.568-16.568-16.568H50.772c-9.136,0-16.568,7.432-16.568,16.568v188.125
	c0,9.136,7.432,16.568,16.568,16.568h230.881C290.789,315.324,298.221,307.892,298.221,298.756z M50.238,298.756V110.63
	c0-0.295,0.239-0.534,0.534-0.534h230.881c0.295,0,0.534,0.239,0.534,0.534v188.125c0,0.295-0.239,0.534-0.534,0.534H50.772
	C50.477,299.29,50.238,299.051,50.238,298.756z"/>
<path d="M461.228,162.472H332.96c-9.136,0-16.568,7.432-16.568,16.568v119.716c0,9.136,7.432,16.568,16.568,16.568h128.267
	c9.136,0,16.568-7.432,16.568-16.568V179.04C477.795,169.904,470.363,162.472,461.228,162.472z M461.762,298.756
	c0,0.295-0.239,0.534-0.534,0.534H332.96c-0.295,0-0.534-0.239-0.534-0.534V179.04c0-0.295,0.239-0.534,0.534-0.534h128.267
	c0.295,0,0.534,0.239,0.534,0.534V298.756z"/>
<path d="M461.228,94.063H332.96c-9.136,0-16.568,7.432-16.568,16.568v17.102c0,9.136,7.432,16.568,16.568,16.568h128.267
	c9.136,0,16.568-7.432,16.568-16.568V110.63C477.795,101.495,470.363,94.063,461.228,94.063z M461.762,127.733
	c0,0.295-0.239,0.534-0.534,0.534H332.96c-0.295,0-0.534-0.239-0.534-0.534V110.63c0-0.295,0.239-0.534,0.534-0.534h128.267
	c0.295,0,0.534,0.239,0.534,0.534V127.733z"/>
<path d="M367.165,196.676h-8.551c-4.427,0-8.017,3.589-8.017,8.017s3.589,8.017,8.017,8.017h8.551c4.427,0,8.017-3.589,8.017-8.017
	S371.592,196.676,367.165,196.676z"/>
<path d="M401.37,196.676h-8.551c-4.427,0-8.017,3.589-8.017,8.017s3.589,8.017,8.017,8.017h8.551c4.427,0,8.017-3.589,8.017-8.017
	S405.797,196.676,401.37,196.676z"/>
<path d="M435.574,196.676h-8.551c-4.427,0-8.017,3.589-8.017,8.017s3.589,8.017,8.017,8.017h8.551c4.427,0,8.017-3.589,8.017-8.017
	S440.001,196.676,435.574,196.676z"/>
<path d="M367.165,230.881h-8.551c-4.427,0-8.017,3.589-8.017,8.017s3.589,8.017,8.017,8.017h8.551c4.427,0,8.017-3.589,8.017-8.017
	S371.592,230.881,367.165,230.881z"/>
<path d="M401.37,230.881h-8.551c-4.427,0-8.017,3.589-8.017,8.017s3.589,8.017,8.017,8.017h8.551c4.427,0,8.017-3.589,8.017-8.017
	S405.797,230.881,401.37,230.881z"/>
<path d="M435.574,230.881h-8.551c-4.427,0-8.017,3.589-8.017,8.017s3.589,8.017,8.017,8.017h8.551c4.427,0,8.017-3.589,8.017-8.017
	S440.001,230.881,435.574,230.881z"/>
<path d="M367.165,265.086h-8.551c-4.427,0-8.017,3.589-8.017,8.017c0,4.427,3.589,8.017,8.017,8.017h8.551
	c4.427,0,8.017-3.589,8.017-8.017C375.182,268.675,371.592,265.086,367.165,265.086z"/>
<path d="M401.37,265.086h-8.551c-4.427,0-8.017,3.589-8.017,8.017c0,4.427,3.589,8.017,8.017,8.017h8.551
	c4.427,0,8.017-3.589,8.017-8.017C409.386,268.675,405.797,265.086,401.37,265.086z"/>
<path d="M435.574,265.086h-8.551c-4.427,0-8.017,3.589-8.017,8.017c0,4.427,3.589,8.017,8.017,8.017h8.551
	c4.427,0,8.017-3.589,8.017-8.017C443.591,268.675,440.001,265.086,435.574,265.086z"/>
<path d="M256,128.267H76.426c-4.427,0-8.017,3.589-8.017,8.017v136.818c0,4.427,3.589,8.017,8.017,8.017H256
	c4.427,0,8.017-3.589,8.017-8.017V136.284C264.017,131.857,260.427,128.267,256,128.267z M247.983,265.086H84.443V144.301h163.541
	V265.086z"/>
<path d="M409.921,333.495H102.079c-9.136,0-16.568,7.432-16.568,16.568v51.307c0,9.136,7.432,16.568,16.568,16.568h307.841
	c9.136,0,16.568-7.432,16.568-16.568v-51.307C426.489,340.927,419.057,333.495,409.921,333.495z M410.455,401.37
	c0,0.295-0.239,0.534-0.534,0.534H102.079c-0.295,0-0.534-0.239-0.534-0.534v-51.307c0-0.295,0.239-0.534,0.534-0.534h307.841
	c0.295,0,0.534,0.239,0.534,0.534V401.37z"/>
<path d="M367.165,367.699h-222.33c-4.427,0-8.017,3.589-8.017,8.017c0,4.427,3.589,8.017,8.017,8.017h222.33
	c4.427,0,8.017-3.589,8.017-8.017C375.182,371.289,371.592,367.699,367.165,367.699z"/>
<g>
</g>
<g>
</g>
<g>
</g>
<g>
</g>
<g>
</g>
<g>
</g>
<g>
</g>
<g>
</g>
<g>
</g>
<g>
</g>
<g>
</g>
<g>
</g>
<g>
</g>
<g>
</g>
<g>
</g>
</svg>
