<svg width="512" height="512" xmlns="http://www.w3.org/2000/svg" xml:space="preserve" version="1.1">

 <g>
  <title>Layer 1</title>
  <g id="svg_1">
   <g id="svg_2">
    <path id="svg_3" fill="#74D24F" d="m496,112l-480,0c-8.82,0 -16,7.18 -16,16l0,256c0,8.82 7.18,16 16,16l480,0c8.82,0 16,-7.18 16,-16l0,-256c0,-8.82 -7.18,-16 -16,-16z"/>
   </g>
   <g id="svg_4">
    <path id="svg_5" fill="#FFEFBC" d="m472,192c-22.055,0 -40,-17.945 -40,-40c0,-4.422 -3.578,-8 -8,-8l-336,0c-4.422,0 -8,3.578 -8,8c0,22.055 -17.945,40 -40,40c-4.422,0 -8,3.578 -8,8l0,112c0,4.422 3.578,8 8,8c22.055,0 40,17.945 40,40c0,4.422 3.578,8 8,8l336,0c4.422,0 8,-3.578 8,-8c0,-22.055 17.945,-40 40,-40c4.422,0 8,-3.578 8,-8l0,-112c0,-4.422 -3.578,-8 -8,-8z"/>
   </g>
   <g id="svg_6">
    <path id="svg_7" fill="#869B55" d="m128,256c0,48.221 26.691,90.175 66.081,112l123.839,0c39.389,-21.825 66.08,-63.779 66.08,-112s-26.691,-90.175 -66.081,-112l-123.839,0c-39.389,21.825 -66.08,63.779 -66.08,112z"/>
   </g>
   <g id="svg_8">
    <path id="svg_9" fill="#FFEFBC" d="m256,244c-16.023,0 -28,-8.445 -28,-16c0,-7.555 11.977,-16 28,-16s28,8.445 28,16c0,6.625 5.375,12 12,12s12,-5.375 12,-12c0,-19.236 -16.824,-34.862 -40,-38.932l0,-5.068c0,-6.625 -5.375,-12 -12,-12s-12,5.375 -12,12l0,5.068c-23.176,4.07 -40,19.695 -40,38.932c0,22.43 22.844,40 52,40c16.023,0 28,8.445 28,16c0,7.555 -11.977,16 -28,16s-28,-8.445 -28,-16c0,-6.625 -5.375,-12 -12,-12s-12,5.375 -12,12c0,19.236 16.824,34.862 40,38.932l0,5.068c0,6.625 5.375,12 12,12s12,-5.375 12,-12l0,-5.068c23.176,-4.07 40,-19.695 40,-38.932c0,-22.43 -22.844,-40 -52,-40z"/>
   </g>
   <g id="svg_10">
    <circle id="svg_11" fill="#74D24F" r="24" cy="256" cx="80"/>
   </g>
   <g id="svg_12">
    <circle id="svg_13" fill="#74D24F" r="24" cy="256" cx="432"/>
   </g>
   <g id="svg_14">
    <circle id="svg_15" fill="#869B55" r="16" cy="152" cx="40"/>
   </g>
   <g id="svg_16">
    <circle id="svg_17" fill="#869B55" r="16" cy="152" cx="472"/>
   </g>
   <g id="svg_18">
    <circle id="svg_19" fill="#869B55" r="16" cy="360" cx="40"/>
   </g>
   <g id="svg_20">
    <circle id="svg_21" fill="#869B55" r="16" cy="360" cx="472"/>
   </g>
  </g>
  <g id="svg_22"/>
  <g id="svg_23"/>
  <g id="svg_24"/>
  <g id="svg_25"/>
  <g id="svg_26"/>
  <g id="svg_27"/>
  <g id="svg_28"/>
  <g id="svg_29"/>
  <g id="svg_30"/>
  <g id="svg_31"/>
  <g id="svg_32"/>
  <g id="svg_33"/>
  <g id="svg_34"/>
  <g id="svg_35"/>
  <g id="svg_36"/>
  <ellipse stroke="#000" ry="56.5" rx="48.5" id="svg_37" cy="232.5" cx="254.5" fill="#fff"/>
  <ellipse ry="86" rx="73.5" id="svg_38" cy="257" cx="259.5" fill="#869B55"/>
  <text stroke-dasharray="5,2,2,2" transform="matrix(3.09217 0 0 3.19001 -522.728 -394.587)" stroke="null" xml:space="preserve" text-anchor="start" font-family="'Besley'" font-size="24" id="svg_39" y="213.26985" x="231.92787" fill="#000000">100</text>
 </g>
</svg>