<svg width="512" height="512" xmlns="http://www.w3.org/2000/svg" version="1.1" xml:space="preserve">
 <g>
  <title>Layer 1</title>
  <g id="svg_1">
   <g id="svg_2">
    <path d="m496,112l-480,0c-8.82,0 -16,7.18 -16,16l0,256c0,8.82 7.18,16 16,16l480,0c8.82,0 16,-7.18 16,-16l0,-256c0,-8.82 -7.18,-16 -16,-16z" fill="#74D24F" id="svg_3"/>
   </g>
   <g id="svg_4">
    <path d="m472,192c-22.055,0 -40,-17.945 -40,-40c0,-4.422 -3.578,-8 -8,-8l-336,0c-4.422,0 -8,3.578 -8,8c0,22.055 -17.945,40 -40,40c-4.422,0 -8,3.578 -8,8l0,112c0,4.422 3.578,8 8,8c22.055,0 40,17.945 40,40c0,4.422 3.578,8 8,8l336,0c4.422,0 8,-3.578 8,-8c0,-22.055 17.945,-40 40,-40c4.422,0 8,-3.578 8,-8l0,-112c0,-4.422 -3.578,-8 -8,-8z" fill="#FFEFBC" id="svg_5"/>
   </g>
   <g id="svg_6">
    <path d="m128,256c0,48.221 26.691,90.175 66.081,112l123.839,0c39.389,-21.825 66.08,-63.779 66.08,-112s-26.691,-90.175 -66.081,-112l-123.839,0c-39.389,21.825 -66.08,63.779 -66.08,112z" fill="#869B55" id="svg_7"/>
   </g>
   <g id="svg_8">
    <path d="m256,244c-16.023,0 -28,-8.445 -28,-16c0,-7.555 11.977,-16 28,-16s28,8.445 28,16c0,6.625 5.375,12 12,12s12,-5.375 12,-12c0,-19.236 -16.824,-34.862 -40,-38.932l0,-5.068c0,-6.625 -5.375,-12 -12,-12s-12,5.375 -12,12l0,5.068c-23.176,4.07 -40,19.695 -40,38.932c0,22.43 22.844,40 52,40c16.023,0 28,8.445 28,16c0,7.555 -11.977,16 -28,16s-28,-8.445 -28,-16c0,-6.625 -5.375,-12 -12,-12s-12,5.375 -12,12c0,19.236 16.824,34.862 40,38.932l0,5.068c0,6.625 5.375,12 12,12s12,-5.375 12,-12l0,-5.068c23.176,-4.07 40,-19.695 40,-38.932c0,-22.43 -22.844,-40 -52,-40z" fill="#FFEFBC" id="svg_9"/>
   </g>
   <g id="svg_10">
    <circle cx="80" cy="256" r="24" fill="#74D24F" id="svg_11"/>
   </g>
   <g id="svg_12">
    <circle cx="432" cy="256" r="24" fill="#74D24F" id="svg_13"/>
   </g>
   <g id="svg_14">
    <circle cx="40" cy="152" r="16" fill="#869B55" id="svg_15"/>
   </g>
   <g id="svg_16">
    <circle cx="472" cy="152" r="16" fill="#869B55" id="svg_17"/>
   </g>
   <g id="svg_18">
    <circle cx="40" cy="360" r="16" fill="#869B55" id="svg_19"/>
   </g>
   <g id="svg_20">
    <circle cx="472" cy="360" r="16" fill="#869B55" id="svg_21"/>
   </g>
  </g>
  <g id="svg_22"/>
  <g id="svg_23"/>
  <g id="svg_24"/>
  <g id="svg_25"/>
  <g id="svg_26"/>
  <g id="svg_27"/>
  <g id="svg_28"/>
  <g id="svg_29"/>
  <g id="svg_30"/>
  <g id="svg_31"/>
  <g id="svg_32"/>
  <g id="svg_33"/>
  <g id="svg_34"/>
  <g id="svg_35"/>
  <g id="svg_36"/>
  <ellipse fill="#fff" cx="254.5" cy="232.5" id="svg_37" rx="48.5" ry="56.5" stroke="#000"/>
  <ellipse fill="#869B55" cx="259.5" cy="257" id="svg_38" rx="73.5" ry="86"/>
  <text fill="#000000" x="213.81761" y="212.95637" id="svg_39" font-size="24" font-family="'Besley'" text-anchor="start" xml:space="preserve" stroke="null" transform="matrix(2.60853 0 0 3.19001 -419.786 -394.587)" stroke-dasharray="5,2,2,2">100.000</text>
 </g>

</svg>