<svg width="512" height="512" xmlns="http://www.w3.org/2000/svg" version="1.1" xml:space="preserve">
 <g>
  <title>Layer 1</title>
  <g id="svg_22"/>
  <g id="svg_23"/>
  <g id="svg_24"/>
  <g id="svg_25"/>
  <g id="svg_26"/>
  <g id="svg_27"/>
  <g id="svg_28"/>
  <g id="svg_29"/>
  <g id="svg_30"/>
  <g id="svg_31"/>
  <g id="svg_32"/>
  <g id="svg_33"/>
  <g id="svg_34"/>
  <g id="svg_35"/>
  <g id="svg_36"/>
  <rect stroke="#000" stroke-dasharray="5,2,2,2,2,2" id="svg_42" height="106.33337" width="153.00008" y="199" x="734.99992" fill="#fff"/>
  <g stroke="null" id="svg_44">
   <g stroke="null" id="svg_1">
    <g stroke="null" id="svg_2">
     <path stroke="null" d="m402.99994,197.33337l-349.99992,0c-6.43125,0 -11.66666,5.25204 -11.66666,11.7037l0,187.25923c0,6.45167 5.23542,11.7037 11.66666,11.7037l349.99992,0c6.43125,0 11.66666,-5.25204 11.66666,-11.7037l0,-187.25923c0,-6.45167 -5.23542,-11.7037 -11.66666,-11.7037z" fill="#74D24F" id="svg_3"/>
    </g>
    <g stroke="null" id="svg_4">
     <path stroke="null" d="m385.49995,255.85188c-16.08177,0 -29.16666,-13.12643 -29.16666,-29.25925c0,-3.23461 -2.60896,-5.85185 -5.83333,-5.85185l-244.99995,0c-3.22437,0 -5.83333,2.61724 -5.83333,5.85185c0,16.13282 -13.08489,29.25925 -29.16666,29.25925c-3.22437,0 -5.83333,2.61724 -5.83333,5.85185l0,81.92591c0,3.23461 2.60896,5.85185 5.83333,5.85185c16.08177,0 29.16666,13.12643 29.16666,29.25925c0,3.23461 2.60896,5.85185 5.83333,5.85185l244.99995,0c3.22437,0 5.83333,-2.61724 5.83333,-5.85185c0,-16.13282 13.08489,-29.25925 29.16666,-29.25925c3.22437,0 5.83333,-2.61724 5.83333,-5.85185l0,-81.92591c0,-3.23461 -2.60896,-5.85185 -5.83333,-5.85185z" fill="#FFEFBC" id="svg_5"/>
    </g>
    <g stroke="null" id="svg_6">
     <path stroke="null" d="m134.66667,302.66669c0,35.27276 19.46218,65.96133 48.18405,81.92591l90.29925,0c28.72114,-15.96458 48.18332,-46.65315 48.18332,-81.92591s-19.46218,-65.96133 -48.18405,-81.92591l-90.29925,0c-28.72114,15.96458 -48.18332,46.65315 -48.18332,81.92591z" fill="#869B55" id="svg_7"/>
    </g>
    <g stroke="null" id="svg_8">
     <path stroke="null" d="m227.99998,293.88892c-11.68343,0 -20.41666,-6.17736 -20.41666,-11.7037c0,-5.52634 8.73323,-11.7037 20.41666,-11.7037s20.41666,6.17736 20.41666,11.7037c0,4.84606 3.91927,8.77778 8.75,8.77778s8.75,-3.93171 8.75,-8.77778c0,-14.07078 -12.2675,-25.5009 -29.16666,-28.47803l0,-3.70715c0,-4.84606 -3.91927,-8.77778 -8.75,-8.77778s-8.75,3.93171 -8.75,8.77778l0,3.70715c-16.89916,2.97713 -29.16666,14.40653 -29.16666,28.47803c0,16.40713 16.65708,29.25925 37.91666,29.25925c11.68343,0 20.41666,6.17736 20.41666,11.7037c0,5.52634 -8.73323,11.7037 -20.41666,11.7037s-20.41666,-6.17736 -20.41666,-11.7037c0,-4.84606 -3.91927,-8.77778 -8.75,-8.77778s-8.75,3.93171 -8.75,8.77778c0,14.07078 12.2675,25.5009 29.16666,28.47803l0,3.70715c0,4.84606 3.91927,8.77778 8.75,8.77778s8.75,-3.93171 8.75,-8.77778l0,-3.70715c16.89916,-2.97713 29.16666,-14.40653 29.16666,-28.47803c0,-16.40713 -16.65708,-29.25925 -37.91666,-29.25925z" fill="#FFEFBC" id="svg_9"/>
    </g>
    <g stroke="null" id="svg_10">
     <circle stroke="null" cx="99.66668" cy="302.66669" r="17.5" fill="#74D24F" id="svg_11"/>
    </g>
    <g stroke="null" id="svg_12">
     <circle stroke="null" cx="356.33329" cy="302.66669" r="17.5" fill="#74D24F" id="svg_13"/>
    </g>
    <g stroke="null" id="svg_14">
     <circle stroke="null" cx="70.50002" cy="226.59263" r="11.66666" fill="#869B55" id="svg_15"/>
    </g>
    <g stroke="null" id="svg_16">
     <circle stroke="null" cx="385.49995" cy="226.59263" r="11.66666" fill="#869B55" id="svg_17"/>
    </g>
    <g stroke="null" id="svg_18">
     <circle stroke="null" cx="70.50002" cy="378.74075" r="11.66666" fill="#869B55" id="svg_19"/>
    </g>
    <g stroke="null" id="svg_20">
     <circle stroke="null" cx="385.49995" cy="378.74075" r="11.66666" fill="#869B55" id="svg_21"/>
    </g>
   </g>
   <ellipse stroke="#000" fill="#fff" cx="226.90623" cy="285.47688" id="svg_37" rx="35.36458" ry="41.3287"/>
   <ellipse stroke="null" fill="#869B55" cx="230.55206" cy="303.39817" id="svg_38" rx="53.59374" ry="62.9074"/>
   <text stroke="null" fill="#000000" x="264.89666" y="249.21277" id="svg_39" font-size="24" font-family="'Besley'" text-anchor="start" xml:space="preserve" transform="matrix(2.25471 0 0 2.33343 -381.156 -258.559)" stroke-dasharray="5,2,2,2">5</text>
  </g>
  <g stroke="null" id="svg_94">
   <g stroke="null" id="svg_90">
    <g stroke="null" id="svg_71">
     <path stroke="null" d="m433.66662,166.66669l-349.99992,0c-6.43125,0 -11.66667,5.25204 -11.66667,11.70371l0,187.25923c0,6.45166 5.23542,11.7037 11.66667,11.7037l349.99992,0c6.43125,0 11.66667,-5.25204 11.66667,-11.7037l0,-187.25923c0,-6.45167 -5.23542,-11.70371 -11.66667,-11.70371z" fill="#74D24F" id="svg_70"/>
    </g>
    <g stroke="null" id="svg_73">
     <path stroke="null" d="m416.16663,225.1852c-16.08177,0 -29.16666,-13.12643 -29.16666,-29.25925c0,-3.23461 -2.60896,-5.85185 -5.83334,-5.85185l-244.99994,0c-3.22438,0 -5.83333,2.61724 -5.83333,5.85185c0,16.13282 -13.0849,29.25925 -29.16666,29.25925c-3.22438,0 -5.83334,2.61724 -5.83334,5.85185l0,81.92592c0,3.23461 2.60896,5.85185 5.83334,5.85185c16.08176,0 29.16666,13.12643 29.16666,29.25925c0,3.23462 2.60895,5.85186 5.83333,5.85186l244.99994,0c3.22438,0 5.83334,-2.61724 5.83334,-5.85186c0,-16.13282 13.08489,-29.25925 29.16666,-29.25925c3.22437,0 5.83333,-2.61724 5.83333,-5.85185l0,-81.92592c0,-3.23461 -2.60896,-5.85185 -5.83333,-5.85185z" fill="#FFEFBC" id="svg_72"/>
    </g>
    <g stroke="null" id="svg_75">
     <path stroke="null" d="m165.33335,272.00001c0,35.27277 19.46218,65.96133 48.18405,81.92592l90.29925,0c28.72114,-15.96459 48.18332,-46.65315 48.18332,-81.92592s-19.46218,-65.96133 -48.18405,-81.92591l-90.29925,0c-28.72114,15.96458 -48.18332,46.65315 -48.18332,81.92591z" fill="#869B55" id="svg_74"/>
    </g>
    <g stroke="null" id="svg_77">
     <path stroke="null" d="m258.66666,263.22224c-11.68343,0 -20.41666,-6.17736 -20.41666,-11.70371c0,-5.52634 8.73323,-11.7037 20.41666,-11.7037s20.41666,6.17736 20.41666,11.7037c0,4.84607 3.91927,8.77778 8.75,8.77778s8.75,-3.93171 8.75,-8.77778c0,-14.07077 -12.2675,-25.5009 -29.16666,-28.47803l0,-3.70715c0,-4.84606 -3.91927,-8.77777 -8.75,-8.77777s-8.75,3.93171 -8.75,8.77777l0,3.70715c-16.89916,2.97713 -29.16666,14.40653 -29.16666,28.47803c0,16.40713 16.65708,29.25926 37.91666,29.25926c11.68344,0 20.41666,6.17736 20.41666,11.7037c0,5.52634 -8.73322,11.7037 -20.41666,11.7037s-20.41666,-6.17736 -20.41666,-11.7037c0,-4.84606 -3.91927,-8.77778 -8.75,-8.77778s-8.75,3.93172 -8.75,8.77778c0,14.07078 12.2675,25.5009 29.16666,28.47803l0,3.70715c0,4.84606 3.91927,8.77778 8.75,8.77778s8.75,-3.93172 8.75,-8.77778l0,-3.70715c16.89916,-2.97713 29.16666,-14.40652 29.16666,-28.47803c0,-16.40713 -16.65708,-29.25925 -37.91666,-29.25925z" fill="#FFEFBC" id="svg_76"/>
    </g>
    <g stroke="null" id="svg_79">
     <circle stroke="null" cx="130.33335" cy="272.00002" r="17.5" fill="#74D24F" id="svg_78"/>
    </g>
    <g stroke="null" id="svg_81">
     <circle stroke="null" cx="386.99997" cy="272.00002" r="17.5" fill="#74D24F" id="svg_80"/>
    </g>
    <g stroke="null" id="svg_83">
     <circle stroke="null" cx="101.16669" cy="195.92595" r="11.66666" fill="#869B55" id="svg_82"/>
    </g>
    <g stroke="null" id="svg_85">
     <circle stroke="null" cx="416.16663" cy="195.92595" r="11.66666" fill="#869B55" id="svg_84"/>
    </g>
    <g stroke="null" id="svg_87">
     <circle stroke="null" cx="101.16669" cy="348.07408" r="11.66666" fill="#869B55" id="svg_86"/>
    </g>
    <g stroke="null" id="svg_89">
     <circle stroke="null" cx="416.16663" cy="348.07408" r="11.66666" fill="#869B55" id="svg_88"/>
    </g>
   </g>
   <ellipse stroke="#000" fill="#fff" cx="257.57291" cy="254.8102" id="svg_91" rx="35.36458" ry="41.3287"/>
   <ellipse stroke="null" fill="#869B55" cx="261.21874" cy="272.7315" id="svg_92" rx="53.59374" ry="62.9074"/>
   <text stroke="null" fill="#000000" x="278.49782" y="261.78369" id="svg_93" font-size="24" font-family="'Besley'" text-anchor="start" xml:space="preserve" transform="matrix(2.25471 0 0 2.33343 -381.156 -318.559)" stroke-dasharray="5,2,2,2">5</text>
  </g>
  <g stroke="null" id="svg_119">
   <g stroke="null" id="svg_115">
    <g stroke="null" id="svg_96">
     <path stroke="null" d="m462.99998,137.33334l-349.99992,0c-6.43125,0 -11.66667,5.25204 -11.66667,11.70371l0,187.25923c0,6.45166 5.23542,11.7037 11.66667,11.7037l349.99992,0c6.43125,0 11.66667,-5.25204 11.66667,-11.7037l0,-187.25923c0,-6.45167 -5.23542,-11.70371 -11.66667,-11.70371z" fill="#74D24F" id="svg_95"/>
    </g>
    <g stroke="null" id="svg_98">
     <path stroke="null" d="m445.49999,195.85185c-16.08177,0 -29.16666,-13.12643 -29.16666,-29.25925c0,-3.23461 -2.60896,-5.85185 -5.83334,-5.85185l-244.99994,0c-3.22438,0 -5.83333,2.61724 -5.83333,5.85185c0,16.13282 -13.0849,29.25925 -29.16666,29.25925c-3.22438,0 -5.83334,2.61724 -5.83334,5.85185l0,81.92592c0,3.23461 2.60896,5.85185 5.83334,5.85185c16.08176,0 29.16666,13.12643 29.16666,29.25925c0,3.23462 2.60895,5.85186 5.83333,5.85186l244.99994,0c3.22438,0 5.83334,-2.61724 5.83334,-5.85186c0,-16.13282 13.08489,-29.25925 29.16666,-29.25925c3.22437,0 5.83333,-2.61724 5.83333,-5.85185l0,-81.92592c0,-3.23461 -2.60896,-5.85185 -5.83333,-5.85185z" fill="#FFEFBC" id="svg_97"/>
    </g>
    <g stroke="null" id="svg_100">
     <path stroke="null" d="m194.66671,242.66666c0,35.27277 19.46218,65.96133 48.18405,81.92592l90.29925,0c28.72114,-15.96459 48.18332,-46.65315 48.18332,-81.92592s-19.46218,-65.96133 -48.18405,-81.92591l-90.29925,0c-28.72114,15.96458 -48.18332,46.65315 -48.18332,81.92591z" fill="#869B55" id="svg_99"/>
    </g>
    <g stroke="null" id="svg_102">
     <path stroke="null" d="m288.00002,233.88889c-11.68343,0 -20.41666,-6.17736 -20.41666,-11.70371c0,-5.52634 8.73323,-11.7037 20.41666,-11.7037s20.41666,6.17736 20.41666,11.7037c0,4.84607 3.91927,8.77778 8.75,8.77778s8.75,-3.93171 8.75,-8.77778c0,-14.07077 -12.2675,-25.5009 -29.16666,-28.47803l0,-3.70715c0,-4.84606 -3.91927,-8.77777 -8.75,-8.77777s-8.75,3.93171 -8.75,8.77777l0,3.70715c-16.89916,2.97713 -29.16666,14.40653 -29.16666,28.47803c0,16.40713 16.65708,29.25926 37.91666,29.25926c11.68344,0 20.41666,6.17736 20.41666,11.7037c0,5.52634 -8.73322,11.7037 -20.41666,11.7037s-20.41666,-6.17736 -20.41666,-11.7037c0,-4.84606 -3.91927,-8.77778 -8.75,-8.77778s-8.75,3.93172 -8.75,8.77778c0,14.07078 12.2675,25.5009 29.16666,28.47803l0,3.70715c0,4.84606 3.91927,8.77778 8.75,8.77778s8.75,-3.93172 8.75,-8.77778l0,-3.70715c16.89916,-2.97713 29.16666,-14.40652 29.16666,-28.47803c0,-16.40713 -16.65708,-29.25925 -37.91666,-29.25925z" fill="#FFEFBC" id="svg_101"/>
    </g>
    <g stroke="null" id="svg_104">
     <circle stroke="null" cx="159.66671" cy="242.66667" r="17.5" fill="#74D24F" id="svg_103"/>
    </g>
    <g stroke="null" id="svg_106">
     <circle stroke="null" cx="416.33332" cy="242.66667" r="17.5" fill="#74D24F" id="svg_105"/>
    </g>
    <g stroke="null" id="svg_108">
     <circle stroke="null" cx="130.50005" cy="166.5926" r="11.66666" fill="#869B55" id="svg_107"/>
    </g>
    <g stroke="null" id="svg_110">
     <circle stroke="null" cx="445.49998" cy="166.5926" r="11.66666" fill="#869B55" id="svg_109"/>
    </g>
    <g stroke="null" id="svg_112">
     <circle stroke="null" cx="130.50005" cy="318.74073" r="11.66666" fill="#869B55" id="svg_111"/>
    </g>
    <g stroke="null" id="svg_114">
     <circle stroke="null" cx="445.49998" cy="318.74073" r="11.66666" fill="#869B55" id="svg_113"/>
    </g>
   </g>
   <ellipse stroke="#000" fill="#fff" cx="286.90627" cy="225.47685" id="svg_116" rx="35.36458" ry="41.3287"/>
   <ellipse stroke="null" fill="#869B55" cx="290.5521" cy="243.39815" id="svg_117" rx="53.59374" ry="62.9074"/>
   <text stroke="null" fill="#000000" x="180.3329" y="330.92372" id="svg_118" font-size="24" font-family="'Besley'" text-anchor="start" xml:space="preserve" transform="matrix(2.25471 0 0 2.33343 -130.489 -509.226)" stroke-dasharray="5,2,2,2">5</text>
  </g>
  <ellipse ry="20.66668" rx="16.00001" id="svg_120" cy="242.00024" cx="288.00002" stroke-dasharray="5,2,2,2,2,2" stroke="null" fill="#869B55"/>
  <ellipse ry="44.00002" rx="41.33335" id="svg_121" cy="236.00023" cx="280.00001" stroke-dasharray="5,2,2,2,2,2" stroke="null" fill="#869B55"/>
  <ellipse ry="0.66667" id="svg_122" cy="66.00015" cx="369.33339" stroke-dasharray="5,2,2,2,2,2" stroke="null" fill="#869B55"/>
  <text style="cursor: move;" transform="matrix(2.66943 0 0 2.33351 -483.224 -279.193)" stroke="null" xml:space="preserve" text-anchor="start" font-family="Noto Sans JP" font-size="24" stroke-width="0" id="svg_123" y="232.48381" x="256.44938" stroke-dasharray="5,2,2,2,2,2" fill="#000000">50.000</text>
 </g>

</svg>